<?xml version="1.0" encoding="utf-8"?>
<!-- Generator: Adobe Illustrator 26.1.0, SVG Export Plug-In . SVG Version: 6.00 Build 0)  -->
<svg version="1.1" id="Layer_1" xmlns="http://www.w3.org/2000/svg" xmlns:xlink="http://www.w3.org/1999/xlink" x="0px" y="0px"
	 viewBox="0 0 229.6 53.8" style="enable-background:new 0 0 229.6 53.8;" xml:space="preserve">
<style type="text/css">
	.st0{fill:#F15838;}
	.st1{fill:#DA392E;}
	.st2{fill:#FFFFFF;}
	.st3{fill:#1D1D1B;}
</style>
<g>
	<path class="st0" d="M53.3,27.2c0,0.2,0,0.5,0,0.7c-0.3,14-11.8,25.3-25.9,25.3c-0.7,0-1.4,0-2-0.1C11.9,52,1.4,40.9,1.4,27.2
		c0-14.3,11.6-26,26-26S53.3,12.9,53.3,27.2z"/>
	<path class="st1" d="M53.3,27.9c-0.3,14-11.8,25.3-25.9,25.3c-0.7,0-1.4,0-2-0.1L13.1,41l11.2,1l7.8-0.3l3.7-2l0.2-6.2l-4.5-5.9
		l-8-3.8l-4.4-2.9l0.8-5.4l4.7-2.5l7.7-1l3.4,0.2l4.6,0.9L53.3,27.9z"/>
	<g>
		<path class="st2" d="M37.1,19.7C37,19.6,36.7,19.3,36,19s-1.4-0.7-2.3-1.1c-0.9-0.4-1.9-0.8-3-1.1c-1.1-0.3-2.2-0.5-3.3-0.5
			c-1.4,0-2.5,0.2-3.3,0.7c-0.8,0.5-1.2,1.2-1.2,2.3c0,0.8,0.3,1.5,0.9,1.9c0.6,0.5,1.5,0.9,2.6,1.2c1.1,0.4,2.5,0.8,4.1,1.2
			c2.3,0.6,4.3,1.3,6,2.2c1.7,0.9,3,2,3.9,3.3c0.9,1.4,1.4,3.1,1.4,5.4c0,2-0.4,3.7-1.1,5.1c-0.7,1.4-1.8,2.5-3,3.4
			C36.4,44,35,44.6,33.3,45c-1.6,0.4-3.3,0.6-5.1,0.6c-1.8,0-3.6-0.2-5.4-0.5s-3.6-0.9-5.3-1.5c-1.3-0.5-2.5-1.1-3.6-1.7
			c-0.6-0.4-0.9-1.2-0.5-1.9l3.1-6.1c0.1,0.2,0.6,0.5,1.3,0.9c0.7,0.5,1.7,0.9,2.8,1.4c0.9,0.4,1.9,0.8,2.9,1.1
			c1.5,0.4,3,0.7,4.5,0.8c1.7,0,2.9-0.2,3.7-0.7c0.7-0.5,1.1-1.1,1.1-1.9c0-0.9-0.4-1.6-1.1-2.1c-0.8-0.5-1.8-1-3.1-1.4
			c-1.3-0.4-2.8-0.9-4.5-1.4c-2.2-0.7-4-1.4-5.5-2.3c-1.4-0.8-2.5-1.9-3.2-3.1c-0.7-1.2-1-2.7-1-4.6c0-2.5,0.6-4.7,1.8-6.4
			c1.2-1.7,2.8-3.1,4.9-4c2-0.9,4.3-1.3,6.7-1.3c1.7,0,3.3,0.2,4.9,0.6c1.6,0.4,3.1,0.9,4.4,1.5c1,0.5,2,0.9,2.9,1.4
			c0.5,0.2,0.6,0.8,0.4,1.3L37.1,19.7z"/>
	</g>
</g>
<path class="st3" d="M61,45.4V9h8.4v15.7L82.7,9h9.4L78.5,25.3L93,45.4h-9.6L73.1,30.8l-3.8,3.9v10.7H61z"/>
<path class="st3" d="M104.1,9l7.8,16.1L119.8,9h9.2l-13,24v12.4h-8.3V32.9L94.9,9H104.1z"/>
<path class="st3" d="M162.7,36.1c0,2.1-0.6,3.8-1.7,5.2c-1.1,1.4-2.6,2.4-4.5,3.1c-1.9,0.7-3.9,1-6.2,1h-17.7V9h20.2
	c1.7,0,3.2,0.5,4.4,1.4c1.2,0.9,2.2,2.1,2.9,3.5c0.7,1.4,1,2.9,1,4.5c0,1.7-0.4,3.3-1.3,4.9c-0.9,1.6-2.2,2.7-3.9,3.5
	c2.1,0.6,3.7,1.7,4.9,3.3C162.1,31.6,162.7,33.6,162.7,36.1z M141,16.2v7.5h8.2c0.6,0,1.2-0.1,1.7-0.4c0.5-0.3,1-0.7,1.3-1.3
	c0.3-0.6,0.5-1.3,0.5-2.1c0-0.8-0.1-1.5-0.4-2c-0.3-0.5-0.7-1-1.2-1.3c-0.5-0.3-1-0.4-1.6-0.4H141z M154.1,34.4
	c0-0.8-0.2-1.5-0.5-2.1c-0.3-0.6-0.7-1.1-1.2-1.4c-0.5-0.4-1.1-0.5-1.8-0.5H141v7.9h9.3c0.7,0,1.4-0.2,1.9-0.5s1-0.8,1.4-1.4
	C153.9,35.8,154.1,35.1,154.1,34.4z"/>
<path class="st3" d="M197.9,45.4V9h16.4c1.7,0,3.3,0.4,4.7,1c1.4,0.7,2.7,1.6,3.8,2.8c1.1,1.2,1.9,2.5,2.5,4c0.6,1.5,0.9,3,0.9,4.5
	c0,1.5-0.2,2.9-0.7,4.3c-0.5,1.3-1.2,2.6-2,3.6c-0.9,1.1-1.9,2-3.2,2.6l8,13.5H219l-7-11.7h-5.7v11.7H197.9z M206.3,26.3h7.7
	c0.7,0,1.3-0.2,1.8-0.6c0.5-0.4,1-1,1.3-1.8c0.3-0.7,0.5-1.6,0.5-2.6c0-1-0.2-1.9-0.6-2.6c-0.4-0.7-0.9-1.3-1.5-1.7
	c-0.6-0.4-1.2-0.6-1.8-0.6h-7.4V26.3z"/>
<rect x="166.9" y="9" class="st3" width="25.1" height="7.4"/>
<rect x="166.9" y="23.5" class="st3" width="25.1" height="7.4"/>
<rect x="166.9" y="38" class="st3" width="25.1" height="7.4"/>
</svg>
