<svg width="24" height="24" viewBox="0 0 24 24" fill="none" xmlns="http://www.w3.org/2000/svg">
<path fill-rule="evenodd" clip-rule="evenodd" d="M8.28571 10C7.53927 10 7 10.5729 7 11.2V17.8C7 18.4271 7.53927 19 8.28571 19H19.7143C20.4607 19 21 18.4271 21 17.8V11.2C21 10.5729 20.4607 10 19.7143 10H8.28571ZM5 11.2C5 9.39701 6.50743 8 8.28571 8H19.7143C21.4926 8 23 9.39701 23 11.2V17.8C23 19.603 21.4926 21 19.7143 21H8.28571C6.50743 21 5 19.603 5 17.8V11.2Z" fill="black"/>
<path fill-rule="evenodd" clip-rule="evenodd" d="M14.5 13C13.6716 13 13 13.6716 13 14.5C13 15.3284 13.6716 16 14.5 16C15.3284 16 16 15.3284 16 14.5C16 13.6716 15.3284 13 14.5 13ZM11 14.5C11 12.567 12.567 11 14.5 11C16.433 11 18 12.567 18 14.5C18 16.433 16.433 18 14.5 18C12.567 18 11 16.433 11 14.5Z" fill="black"/>
<path fill-rule="evenodd" clip-rule="evenodd" d="M1.976 3.92388C2.59487 3.32822 3.42636 3 4.28571 3H15.7143C16.5736 3 17.4051 3.32822 18.024 3.92388C18.6442 4.52079 19 5.33871 19 6.2V8.4C19 8.95228 18.5523 9.4 18 9.4C17.4477 9.4 17 8.95228 17 8.4V6.2C17 5.89434 16.8742 5.5931 16.6371 5.36485C16.3986 5.13535 16.0673 5 15.7143 5H4.28571C3.93265 5 3.60138 5.13535 3.36294 5.36485C3.1258 5.5931 3 5.89434 3 6.2V12.8C3 13.1057 3.1258 13.4069 3.36294 13.6351C3.60138 13.8646 3.93265 14 4.28571 14H5.57143C6.12371 14 6.57143 14.4477 6.57143 15C6.57143 15.5523 6.12371 16 5.57143 16H4.28571C3.42636 16 2.59487 15.6718 1.976 15.0761C1.35583 14.4792 1 13.6613 1 12.8V6.2C1 5.33871 1.35583 4.52079 1.976 3.92388Z" fill="black"/>
</svg>
