<svg width="24" height="24" viewBox="0 0 24 24" fill="none" xmlns="http://www.w3.org/2000/svg">
<path fill-rule="evenodd" clip-rule="evenodd" d="M6 5.00024C5.44772 5.00024 5 5.44796 5 6.00024V8.00024C5 8.55253 5.44772 9.00024 6 9.00024H18C18.5523 9.00024 19 8.55253 19 8.00024V6.00024C19 5.44796 18.5523 5.00024 18 5.00024H6ZM3 6.00024C3 4.34339 4.34315 3.00024 6 3.00024H18C19.6569 3.00024 21 4.34339 21 6.00024V8.00024C21 9.6571 19.6569 11.0002 18 11.0002H6C4.34315 11.0002 3 9.6571 3 8.00024V6.00024Z" fill="black"/>
<path fill-rule="evenodd" clip-rule="evenodd" d="M6 14.9999C5.44771 14.9999 5 15.4477 5 15.9999V17.9999C5 18.5522 5.44771 18.9999 6 18.9999H18C18.5523 18.9999 19 18.5522 19 17.9999V15.9999C19 15.4477 18.5523 14.9999 18 14.9999H6ZM3 15.9999C3 14.3431 4.34315 12.9999 6 12.9999H18C19.6569 12.9999 21 14.3431 21 15.9999V17.9999C21 19.6568 19.6569 20.9999 18 20.9999H6C4.34315 20.9999 3 19.6568 3 17.9999V15.9999Z" fill="black"/>
</svg>
